<svg width="27" height="20" viewBox="0 0 27 20" fill="none" xmlns="http://www.w3.org/2000/svg">
<path d="M26.0011 5.85196H22.9559L22.1096 3.73677C21.2398 1.5621 19.1641 0.157227 16.8208 0.157227H10.3612C8.01849 0.157227 5.94227 1.5621 5.072 3.73677L4.22564 5.85196H1.18099C0.783752 5.85196 0.492307 6.22517 0.588947 6.61007L0.894124 7.83037C0.961772 8.10189 1.20591 8.29256 1.48617 8.29256H2.50699C1.8239 8.88898 1.38393 9.7559 1.38393 10.7332V13.1738C1.38393 13.9934 1.69725 14.7332 2.19774 15.3057V18.055C2.19774 18.9534 2.92661 19.682 3.82535 19.682H5.45297C6.35171 19.682 7.08058 18.9534 7.08058 18.055V16.4279H20.1015V18.055C20.1015 18.9534 20.8303 19.682 21.7291 19.682H23.3567C24.2555 19.682 24.9843 18.9534 24.9843 18.055V15.3057C25.4848 14.7337 25.7981 13.9939 25.7981 13.1738V10.7332C25.7981 9.7559 25.3582 8.88898 24.6756 8.29256H25.6964C25.9767 8.29256 26.2208 8.10189 26.2884 7.83037L26.5936 6.61007C26.6898 6.22517 26.3983 5.85196 26.0011 5.85196ZM8.09428 4.94538C8.46507 4.01897 9.3628 3.41136 10.3612 3.41136H16.8208C17.8193 3.41136 18.717 4.01897 19.0878 4.94538L20.1015 7.47903H7.08058L8.09428 4.94538ZM5.45297 13.1636C4.4764 13.1636 3.82535 12.5148 3.82535 11.5416C3.82535 10.5684 4.4764 9.91963 5.45297 9.91963C6.42953 9.91963 7.89439 11.3794 7.89439 12.3526C7.89439 13.3258 6.42953 13.1636 5.45297 13.1636ZM21.7291 13.1636C20.7525 13.1636 19.2877 13.3258 19.2877 12.3526C19.2877 11.3794 20.7525 9.91963 21.7291 9.91963C22.7057 9.91963 23.3567 10.5684 23.3567 11.5416C23.3567 12.5148 22.7057 13.1636 21.7291 13.1636Z" fill="#343A40"/>
</svg>
